FFmpeg version SVN-r25716, Copyright (c) 2000-2010 the FFmpeg developers  built on Nov 10 2010 12:23:18 with gcc 4.1.2 20080704 (Red Hat 4.1.2-48)  configuration: --enable-libmp3lame --enable-shared --disable-mmx --arch=x86_64  libavutil     50.33. 0 / 50.33. 0  libavcore      0.12. 1 /  0.12. 1  libavcodec    52.94. 4 / 52.94. 4  libavformat   52.84. 0 / 52.84. 0  libavdevice   52. 2. 2 / 52. 2. 2  libavfilter    1.59. 0 /  1.59. 0  libswscale     0.12. 0 /  0.12. 0Seems stream 0 codec frame rate differs from container frame rate: 5994.00 (5994/1) -> 29.97 (2997/100)Input #0, mov,mp4,m4a,3gp,3g2,mj2, from '/RAID10/data/converted_video_files/25617.mov':  Metadata:    major_brand     : qt      minor_version   : 537199360    compatible_brands: qt    Duration: 00:00:12.01, start: 0.000000, bitrate: 6074 kb/s    Stream #0.0(eng): Video: h264, yuv420p, 696x520, 6070 kb/s, 29.97 fps, 29.97 tbr, 2997 tbn, 5994 tbc[buffer @ 0x130956d0] w:696 h:520 pixfmt:yuv420pOutput #0, flv, to '/RAID10/data/converted_video_files/25617.flv':  Metadata:    encoder         : Lavf52.84.0    Stream #0.0(eng): Video: flv, yuv420p, 696x520, q=2-31, 600 kb/s, 1k tbn, 24 tbcStream mapping:  Stream #0.0 -> #0.0Press [q] to stop encodingframe=   30 fps=  0 q=3.7 size=     217kB time=1.25 bitrate=1422.4kbits/s dup=0 drop=7    frame=   57 fps= 54 q=3.7 size=     341kB time=2.38 bitrate=1175.7kbits/s dup=0 drop=14    frame=  101 fps= 66 q=5.3 size=     525kB time=4.21 bitrate=1021.3kbits/s dup=0 drop=25    frame=  145 fps= 71 q=6.2 size=     698kB time=6.04 bitrate= 946.5kbits/s dup=0 drop=36    frame=  193 fps= 76 q=7.3 size=     860kB time=8.04 bitrate= 875.8kbits/s dup=0 drop=48    frame=  225 fps= 74 q=8.8 size=     959kB time=9.38 bitrate= 837.8kbits/s dup=0 drop=55    frame=  253 fps= 71 q=8.6 size=    1053kB time=10.54 bitrate= 818.6kbits/s dup=0 drop=62    frame=  289 fps= 72 q=8.3 Lsize=    1163kB time=12.04 bitrate= 790.8kbits/s dup=0 drop=71    video:1158kB audio:0kB global headers:0kB muxing overhead 0.407731%